<svg width="100%" viewBox="0 0 1260 320" xmlns="http://www.w3.org/2000/svg">

<style>
  .box { rx:10; stroke-width:1.2; }
  .title { font-size:14px; font-weight:600; fill:#1f2937; text-anchor:middle; }
  .desc { font-size:12px; fill:#4b5563; text-anchor:middle; }
  .arrow { stroke:#6b7280; stroke-width:1.5; fill:none; marker-end:url(#arrow); }
</style>

<defs>
  <marker id="arrow" markerWidth="8" markerHeight="6" refX="8" refY="3" orient="auto">
    <polygon points="0 0, 8 3, 0 6" fill="#6b7280"/>
  </marker>
</defs>

<!-- Vision Input -->
<rect x="30" y="60" width="140" height="70" class="box" fill="#eef2ff" stroke="#4f46e5"/>
<text x="100" y="85" class="title">Vision Input</text>
<text x="100" y="105" class="desc">Camera Module 3</text>
<text x="100" y="120" class="desc">RGB Frames</text>

<!-- LiDAR Input -->
<rect x="30" y="180" width="140" height="70" class="box" fill="#ecfeff" stroke="#0891b2"/>
<text x="100" y="205" class="title">LiDAR Input</text>
<text x="100" y="225" class="desc">URG-04LX-UG-01</text>
<text x="100" y="240" class="desc">Range Scans</text>

<!-- Preprocessing -->
<rect x="230" y="110" width="170" height="90" class="box" fill="#ecfdf5" stroke="#059669"/>
<text x="315" y="135" class="title">Pre-processing</text>
<text x="315" y="155" class="desc">Resize · Normalise</text>
<text x="315" y="170" class="desc">LiDAR Projection</text>
<text x="315" y="185" class="desc">Time Sync</text>

<!-- Arrows from inputs -->
<line x1="170" y1="95" x2="230" y2="140" class="arrow"/>
<line x1="170" y1="215" x2="230" y2="160" class="arrow"/>

<!-- Inference Preparation -->
<rect x="450" y="105" width="190" height="100" class="box" fill="#fff7ed" stroke="#ea580c"/>
<text x="545" y="130" class="title">Inference Preparation</text>
<text x="545" y="150" class="desc">YOLOv8n Model</text>
<text x="545" y="165" class="desc">ONNX FP32 Export</text>
<text x="545" y="180" class="desc">INT8 Quantisation</text>
<text x="545" y="195" class="desc">HEF Compilation</text>

<!-- Arrow to preparation -->
<line x1="400" y1="155" x2="450" y2="155" class="arrow"/>

<!-- CPU -->
<rect x="700" y="60" width="170" height="70" class="box" fill="#fef3c7" stroke="#d97706"/>
<text x="785" y="85" class="title">CPU Inference Path</text>
<text x="785" y="105" class="desc">ONNX Runtime</text>
<text x="785" y="120" class="desc">FP32 Execution</text>

<!-- NPU -->
<rect x="700" y="180" width="170" height="70" class="box" fill="#e0f2fe" stroke="#0284c7"/>
<text x="785" y="205" class="title">NPU Inference Path</text>
<text x="785" y="225" class="desc">Hailo Runtime</text>
<text x="785" y="240" class="desc">INT8 Execution</text>

<!-- Split -->
<line x1="640" y1="145" x2="700" y2="95" class="arrow"/>
<line x1="640" y1="165" x2="700" y2="215" class="arrow"/>

<!-- Fusion -->
<rect x="940" y="110" width="180" height="90" class="box" fill="#f5f3ff" stroke="#7c3aed"/>
<text x="1030" y="135" class="title">Fusion &amp; Fallback</text>
<text x="1030" y="155" class="desc">Confidence Scoring</text>
<text x="1030" y="170" class="desc">Sensor Redundancy</text>
<text x="1030" y="185" class="desc">Failure Handling</text>

<!-- Merge -->
<line x1="870" y1="95" x2="940" y2="135" class="arrow"/>
<line x1="870" y1="215" x2="940" y2="175" class="arrow"/>

<!-- Output -->
<rect x="1140" y="110" width="100" height="90" class="box" fill="#f9fafb" stroke="#6b7280"/>
<text x="1190" y="135" class="title">Output</text>
<text x="1190" y="155" class="desc">Detections</text>
<text x="1190" y="170" class="desc">Confidence</text>
<text x="1190" y="185" class="desc">System State</text>

<!-- Arrow to output -->
<line x1="1120" y1="155" x2="1140" y2="155" class="arrow"/>

</svg>
